<?xml version="1.0" encoding="utf-8"?>
<!-- Generator: Adobe Illustrator 18.0.0, SVG Export Plug-In . SVG Version: 6.00 Build 0)  -->
<!DOCTYPE svg PUBLIC "-//W3C//DTD SVG 1.1//EN" "http://www.w3.org/Graphics/SVG/1.1/DTD/svg11.dtd">
<svg version="1.1" id="Layer_1" xmlns="http://www.w3.org/2000/svg" xmlns:xlink="http://www.w3.org/1999/xlink" x="0px" y="0px"
	 viewBox="0 0 95.5 119.4" width="282.813100088" height="353.590409953" enable-background="new 0 0 95.5 119.4" xml:space="preserve">
<path fill="#C3002F" d="M47.8,109.1c19.2-12.5,39-31.2,39-44.3V8.7H8.7v56.1C8.7,77.9,28.5,96.6,47.8,109.1"/>
<path fill="#5C6670" d="M47.8,0L47.8,0H0v64.8c0,26,46.9,54.1,47.8,54.6c0.9-0.5,47.8-28.6,47.8-54.6V0H47.8z M91.2,64.8
	c0,17.7-27.2,39.3-43.4,49.5C31.6,104.1,4.4,82.5,4.4,64.8V4.4h86.8V64.8z"/>
<path fill="#FFFFFF" d="M4.4,4.4v60.4c0,17.7,27.2,39.3,43.4,49.5C64,104.1,91.2,82.5,91.2,64.8V4.4H4.4z M86.8,64.8
	c0,13.1-19.8,31.8-39,44.3c-19.2-12.5-39-31.2-39-44.3V8.7h78.1V64.8z"/>
<path fill="#FFFFFF" d="M29.9,27.8c-1.2,0-2.2-1-2.2-2.2c0-1.2,1-2.2,2.2-2.2c1.2,0,2.2,1,2.2,2.2C32.2,26.8,31.2,27.8,29.9,27.8
	 M40.3,21.1c-0.6-0.8-2-2.8-4.3-2.1c-2.1,0.7-1.4,2.2-2.9,2.7c-0.1,0-0.2,0-0.3,0c-0.1-0.1-0.1-0.2-0.1-0.3
	c-0.1-1.5,1.6-1.3,1.6-3.5c0-2.4-2.4-3.1-3.3-3.4c-0.9-0.4-1-1.5-1-1.5s-0.1,1.1-1,1.5c-0.9,0.3-3.3,1-3.3,3.4c0,2.2,1.7,2,1.6,3.5
	c0,0.1,0,0.2-0.2,0.3h0c-0.1,0.1-0.2,0.1-0.3,0c-1.5-0.4-0.8-2-2.9-2.7c-2.3-0.7-3.7,1.3-4.3,2.1c-0.6,0.8-1.7,0.5-1.7,0.5
	s1,0.5,1.1,1.5c0.1,1,0,3.5,2.2,4.2c2.1,0.7,2.4-1,3.9-0.5c0.1,0,0.2,0.1,0.2,0.2c0,0.1,0,0.2-0.1,0.3c-0.9,1.3-2.1,0.1-3.4,1.9
	c-1.4,1.9,0.1,3.9,0.6,4.7c0.5,0.8,0,1.8,0,1.8s0.8-0.8,1.7-0.6c0.9,0.3,3.3,1.1,4.7-0.8c1.3-1.8-0.2-2.6,0.8-3.8
	c0.1-0.1,0.2-0.2,0.3-0.2c0.1,0,0.2,0.1,0.3,0.2c0.9,1.2-0.5,2,0.8,3.8c1.4,1.9,3.7,1.1,4.7,0.8c0.9-0.3,1.7,0.6,1.7,0.6
	s-0.5-1,0-1.8c0.5-0.8,2-2.8,0.6-4.7c-1.3-1.8-2.5-0.6-3.4-1.9c-0.1-0.1-0.1-0.2-0.1-0.3l0,0c0-0.1,0.2-0.2,0.2-0.2
	c1.5-0.5,1.8,1.2,3.9,0.5c2.3-0.7,2.2-3.2,2.2-4.2c0.1-1,1.1-1.5,1.1-1.5S40.9,21.9,40.3,21.1"/>
<path fill="#FFFFFF" d="M65.6,27.8c-1.2,0-2.2-1-2.2-2.2c0-1.2,1-2.2,2.2-2.2c1.2,0,2.2,1,2.2,2.2C67.8,26.8,66.8,27.8,65.6,27.8
	 M75.9,21.1c-0.6-0.8-2-2.8-4.3-2.1c-2.1,0.7-1.4,2.2-2.9,2.7c-0.1,0-0.2,0-0.3,0c-0.1-0.1-0.1-0.2-0.1-0.3
	c-0.1-1.5,1.6-1.3,1.6-3.5c0-2.4-2.4-3.1-3.3-3.4c-0.9-0.4-1-1.5-1-1.5s-0.1,1.1-1.1,1.5c-0.9,0.3-3.3,1-3.3,3.4
	c0,2.2,1.7,2,1.6,3.5c0,0.1,0,0.2-0.2,0.3h0c-0.1,0.1-0.2,0.1-0.3,0c-1.5-0.4-0.8-2-2.9-2.7c-2.3-0.7-3.7,1.3-4.3,2.1
	c-0.6,0.8-1.7,0.5-1.7,0.5s1,0.5,1.1,1.5c0.1,1,0,3.5,2.2,4.2c2.1,0.7,2.4-1,3.9-0.5c0.1,0,0.2,0.1,0.2,0.2c0,0.1,0,0.2-0.1,0.3
	c-0.9,1.3-2.1,0.1-3.4,1.9c-1.4,1.9,0.1,3.9,0.6,4.7c0.5,0.8,0,1.8,0,1.8s0.8-0.8,1.7-0.6c0.9,0.3,3.3,1.1,4.7-0.8
	c1.3-1.8-0.2-2.6,0.8-3.8c0.1-0.1,0.2-0.2,0.3-0.2c0.1,0,0.2,0.1,0.3,0.2c0.9,1.2-0.5,2,0.8,3.8c1.4,1.9,3.7,1.1,4.7,0.8
	c0.9-0.3,1.7,0.6,1.7,0.6s-0.5-1,0-1.8c0.5-0.8,2-2.8,0.6-4.7c-1.3-1.8-2.6-0.6-3.4-1.9c-0.1-0.1-0.1-0.2-0.1-0.3l0,0
	c0-0.1,0.2-0.2,0.2-0.2c1.5-0.5,1.8,1.2,3.9,0.5c2.3-0.7,2.2-3.2,2.2-4.2c0.1-1,1.1-1.5,1.1-1.5S76.5,21.9,75.9,21.1"/>
<path fill="#FFFFFF" d="M56.6,96.7L53.2,95c-0.4-0.2-0.9-0.1-1.1,0.3L51.8,96c-0.2,0.4,0,0.8,0.4,1l3.4,1.7c0.4,0.2,0.9,0.1,1.1-0.3
	l0.4-0.7C57.2,97.4,57,96.9,56.6,96.7"/>
<path fill="#FFFFFF" d="M60.8,82.4l0-0.2l0-0.7c0-0.2,0-0.5-0.1-0.8l-0.1-0.9c-0.2-1.1-0.4-2.2-0.9-3.2c-0.4-1-1-2-1.7-2.9
	c-0.7-0.9-1.5-1.5-2.4-2.1c-0.4-0.3-0.8-0.5-1.3-0.7c-0.4-0.2-0.8-0.4-1.2-0.5c-0.4-0.1-0.8-0.3-1.2-0.4c-0.4-0.1-0.7-0.2-1.1-0.2
	c-0.3-0.1-0.6-0.1-0.8-0.1c-0.4-0.1-1.3-0.1-2.3-0.1c-1.1,0-1.9,0.1-2.3,0.1c-0.3,0-0.5,0.1-0.8,0.1c-0.3,0.1-0.7,0.2-1,0.2
	c-0.4,0.1-0.8,0.2-1.2,0.4c-0.4,0.2-0.8,0.3-1.2,0.5c-0.4,0.2-0.8,0.5-1.3,0.7c-0.8,0.6-1.7,1.3-2.4,2.1c-0.7,0.8-1.3,1.8-1.7,2.9
	c-0.5,1-0.7,2.1-0.9,3.2l-0.1,0.9c0,0.3-0.1,0.6-0.1,0.8l0,0.7l0,0.2l0,0.1v0l0,0l0,0.1l0,0.4c0,1,0.2,2,0.3,2.9
	c0.3,1.8,0.8,3.5,1.2,4.9c0.5,1.4,0.9,2.5,1.3,3.3c0.2,0.4,0.3,0.7,0.4,0.9c0.1,0.2,0.2,0.3,0.2,0.3l0.5-0.3L39,95l1.9-1l0.3-0.2
	l0.3-0.1l0.2-0.1c0,0,0-0.1-0.1-0.2c-0.1-0.2-0.2-0.4-0.3-0.8c-0.3-0.7-0.7-1.7-1-2.9c-0.4-1.2-0.7-2.7-0.9-4.2
	c-0.1-0.8-0.2-1.6-0.1-2.4v-0.3l0-0.1v0l0-0.1l0-0.7c0-0.2,0-0.4,0.1-0.6l0.1-0.5c0.2-0.7,0.3-1.4,0.7-2c0.3-0.6,0.7-1.1,1.1-1.6
	c0,0,0.2-0.2,0.6-0.5c0.1,0,0.1-0.1,0.2-0.1c0.1-0.1,0.3-0.2,0.4-0.3c0.1,0,0.1-0.1,0.2-0.1c0,0,0,0,0.1,0c0.2-0.1,0.4-0.2,0.5-0.3
	c0,0,0.1,0,0.1-0.1c0,0,0,0,0,0c1-0.5,2.5-0.9,4.3-0.9c1.9,0,3.3,0.4,4.3,0.9c0,0,0,0,0,0c0,0,0.1,0,0.1,0.1
	c0.2,0.1,0.4,0.2,0.5,0.3c0,0,0,0,0.1,0c0.1,0,0.1,0.1,0.2,0.1c0.2,0.1,0.3,0.2,0.4,0.3c0.1,0,0.1,0.1,0.2,0.1
	c0.4,0.3,0.6,0.5,0.6,0.5c0.4,0.4,0.8,1,1.1,1.6c0.3,0.6,0.5,1.3,0.7,2l0.1,0.5c0,0.2,0.1,0.3,0.1,0.6l0,0.7l0,0.1v0l0,0.1V83
	c0,0.8-0.1,1.6-0.1,2.4c-0.2,1.6-0.5,3-0.9,4.2c-0.4,1.2-0.7,2.2-1,2.9c-0.1,0.3-0.3,0.6-0.3,0.8c-0.1,0.2-0.1,0.2-0.1,0.2l0.2,0.1
	l0.3,0.1l0.3,0.2l1.9,1l0.4,0.2l0.5,0.3c0,0,0.1-0.1,0.2-0.3c0.1-0.2,0.2-0.5,0.4-0.9c0.4-0.8,0.8-1.9,1.3-3.3
	c0.5-1.4,0.9-3.1,1.2-4.9c0.1-0.9,0.3-1.9,0.3-2.9l0-0.4l0-0.1l0,0v0L60.8,82.4z"/>
<path fill="#FFFFFF" d="M43.4,95.3c-0.2-0.4-0.7-0.5-1.1-0.3l-3.4,1.7c-0.4,0.2-0.6,0.7-0.4,1l0.4,0.7c0.2,0.4,0.7,0.5,1.1,0.3
	l3.4-1.7c0.4-0.2,0.6-0.7,0.4-1L43.4,95.3z"/>
<path fill="#FFFFFF" d="M42.9,65h-25l6.4-21.4h-0.3l-6.8,21.2l-0.3,0.9h26C42.8,65.4,42.8,65.2,42.9,65"/>
<path fill="#FFFFFF" d="M45.9,61.4c-0.1-0.2-0.3-0.5-0.5-0.7c0,0,0,0,0,0c0-0.1-0.1-0.1-0.1-0.1c0,0,0,0,0,0
	c-0.1-0.1-0.1-0.1-0.1-0.1c-0.9-0.8-1.8-1-2.3-1.1c-0.4-0.1-0.8-0.1-1.3-0.1c-2.9,0-7.3,0.8-10.7,1.6l0,0c0,0-7.2,1.5-8.3,1.3
	L27.6,42c-0.5,0.3-0.9,0.5-1.2,0.7l-6,20.3h23.3C44.2,61.9,45.9,61.4,45.9,61.4C45.9,61.4,45.9,61.4,45.9,61.4"/>
<path fill="#FFFFFF" d="M42.7,38.3c-0.8,0-1.8,0.1-2.8,0.3c-0.2,0-3.4,0.7-5.1,1.2c-1.8,0.5-4.6,1.3-5.1,1.2L24.7,60
	c0.9,0,5.6-1,5.6-1h0c3.5-0.8,8.1-1.6,11.2-1.6c2.8,0,4.3,1,5.2,2.1V40.9c0-0.1,0-0.2,0-0.2C46.1,39.7,45,38.3,42.7,38.3"/>
<path fill="#FFFFFF" d="M50.8,65.3L50.8,65.3C50.8,65.3,50.8,65.3,50.8,65.3C50.8,65.3,50.8,65.2,50.8,65.3c0-0.2-0.1-0.3-0.2-0.4
	c-0.1-0.1-0.1-0.2-0.3-0.3c0,0,0,0,0,0c-0.3-0.3-0.9-0.7-1.9-0.9l-0.4,0c-0.1,0-0.1,0-0.2,0l0,0l0,0c-0.1,0-0.1,0-0.2,0l-0.4,0
	c-1,0.1-1.6,0.5-1.9,0.9h0c0,0,0,0,0,0c-0.1,0.1-0.2,0.2-0.3,0.3c-0.1,0.1-0.2,0.2-0.2,0.4c0,0,0,0,0,0c0,0,0,0,0,0l0,0
	c0,0.1,0,0.2,0.1,0.2c0.1,0.1,0.1,0.2,0.2,0.2c0,0,0.1,0,0.2-0.1c0.3-0.2,0.8-0.6,2.5-0.6c1.7,0,2.2,0.4,2.5,0.6
	c0.1,0.1,0.1,0.1,0.2,0.1c0.1,0,0.2-0.1,0.2-0.2C50.8,65.4,50.8,65.4,50.8,65.3"/>
<path fill="#FFFFFF" d="M52.7,65h25l-6.4-21.4h0.3l6.8,21.2l0.3,0.9h-26C52.7,65.4,52.7,65.2,52.7,65"/>
<path fill="#FFFFFF" d="M49.6,61.4c0.1-0.2,0.3-0.5,0.5-0.7c0,0,0,0,0,0c0-0.1,0.1-0.1,0.1-0.1c0,0,0,0,0,0c0.1-0.1,0.1-0.1,0.1-0.1
	c0.9-0.8,1.8-1,2.3-1.1c0.4-0.1,0.8-0.1,1.3-0.1c2.9,0,7.3,0.8,10.7,1.6l0,0c0,0,7.2,1.5,8.3,1.3L68,42c0.5,0.3,0.9,0.5,1.2,0.7
	l6,20.3H51.9C51.3,61.9,49.6,61.4,49.6,61.4C49.6,61.4,49.6,61.4,49.6,61.4"/>
<path fill="#FFFFFF" d="M52.8,38.3c0.8,0,1.8,0.1,2.8,0.3c0.2,0,3.4,0.7,5.1,1.2c1.8,0.5,4.6,1.3,5.1,1.2L70.8,60
	c-0.9,0-5.6-1-5.6-1c-3.5-0.8-8.1-1.6-11.2-1.6c-2.8,0-4.3,1-5.2,2.1V40.9c0-0.1,0-0.2,0-0.2C49.4,39.7,50.5,38.3,52.8,38.3"/>
</svg>
